<?xml version="1.0" standalone="no"?><svg width="512" height="512" style='background: white' version="1.1" xmlns="http://www.w3.org/2000/svg"><circle cx="341" cy="497" r="10"/><circle cx="180" cy="446" r="10"/><circle cx="92" cy="301" r="10"/><circle cx="248" cy="367" r="10"/><circle cx="413" cy="404" r="10"/><circle cx="247" cy="368" r="10"/><circle cx="232" cy="201" r="10"/><circle cx="245" cy="370" r="10"/><circle cx="337" cy="229" r="10"/><circle cx="473" cy="331" r="10"/><circle cx="304" cy="333" r="10"/><line    x1="341" y1="497" x2="180" y2="446"  stroke="black" stroke-width="3"/><line    x1="341" y1="497" x2="304" y2="333"  stroke="black" stroke-width="3"/><line    x1="180" y1="446" x2="341" y2="497"  stroke="black" stroke-width="3"/><line    x1="180" y1="446" x2="92" y2="301"  stroke="black" stroke-width="3"/><line    x1="180" y1="446" x2="304" y2="333"  stroke="black" stroke-width="3"/><line    x1="92" y1="301" x2="180" y2="446"  stroke="black" stroke-width="3"/><line    x1="92" y1="301" x2="248" y2="367"  stroke="black" stroke-width="3"/><line    x1="92" y1="301" x2="245" y2="370"  stroke="black" stroke-width="3"/><line    x1="92" y1="301" x2="247" y2="368"  stroke="black" stroke-width="3"/><line    x1="248" y1="367" x2="92" y2="301"  stroke="black" stroke-width="3"/><line    x1="248" y1="367" x2="413" y2="404"  stroke="black" stroke-width="3"/><line    x1="413" y1="404" x2="248" y2="367"  stroke="black" stroke-width="3"/><line    x1="413" y1="404" x2="247" y2="368"  stroke="black" stroke-width="3"/><line    x1="247" y1="368" x2="413" y2="404"  stroke="black" stroke-width="3"/><line    x1="247" y1="368" x2="232" y2="201"  stroke="black" stroke-width="3"/><line    x1="247" y1="368" x2="92" y2="301"  stroke="black" stroke-width="3"/><line    x1="232" y1="201" x2="247" y2="368"  stroke="black" stroke-width="3"/><line    x1="232" y1="201" x2="245" y2="370"  stroke="black" stroke-width="3"/><line    x1="245" y1="370" x2="232" y2="201"  stroke="black" stroke-width="3"/><line    x1="245" y1="370" x2="337" y2="229"  stroke="black" stroke-width="3"/><line    x1="245" y1="370" x2="92" y2="301"  stroke="black" stroke-width="3"/><line    x1="337" y1="229" x2="245" y2="370"  stroke="black" stroke-width="3"/><line    x1="337" y1="229" x2="473" y2="331"  stroke="black" stroke-width="3"/><line    x1="473" y1="331" x2="337" y2="229"  stroke="black" stroke-width="3"/><line    x1="473" y1="331" x2="304" y2="333"  stroke="black" stroke-width="3"/><line    x1="304" y1="333" x2="473" y2="331"  stroke="black" stroke-width="3"/><line    x1="304" y1="333" x2="341" y2="497"  stroke="black" stroke-width="3"/><line    x1="304" y1="333" x2="180" y2="446"  stroke="black" stroke-width="3"/></svg>