<?xml version="1.0" standalone="no"?><svg width="512" height="512" style='background: white' version="1.1" xmlns="http://www.w3.org/2000/svg"><circle cx="487" cy="512" r="10"/><circle cx="386" cy="375" r="10"/><circle cx="218" cy="203" r="10"/><circle cx="92" cy="101" r="10"/><circle cx="0" cy="17" r="10"/><circle cx="104" cy="89" r="10"/><circle cx="136" cy="0" r="10"/><circle cx="240" cy="103" r="10"/><circle cx="366" cy="212" r="10"/><circle cx="470" cy="328" r="10"/><circle cx="512" cy="432" r="10"/><line    x1="487" y1="512" x2="386" y2="375"  stroke="black" stroke-width="3"/><line    x1="487" y1="512" x2="512" y2="432"  stroke="black" stroke-width="3"/><line    x1="386" y1="375" x2="487" y2="512"  stroke="black" stroke-width="3"/><line    x1="386" y1="375" x2="218" y2="203"  stroke="black" stroke-width="3"/><line    x1="386" y1="375" x2="512" y2="432"  stroke="black" stroke-width="3"/><line    x1="218" y1="203" x2="386" y2="375"  stroke="black" stroke-width="3"/><line    x1="218" y1="203" x2="92" y2="101"  stroke="black" stroke-width="3"/><line    x1="218" y1="203" x2="240" y2="103"  stroke="black" stroke-width="3"/><line    x1="218" y1="203" x2="104" y2="89"  stroke="black" stroke-width="3"/><line    x1="92" y1="101" x2="218" y2="203"  stroke="black" stroke-width="3"/><line    x1="92" y1="101" x2="0" y2="17"  stroke="black" stroke-width="3"/><line    x1="0" y1="17" x2="92" y2="101"  stroke="black" stroke-width="3"/><line    x1="0" y1="17" x2="104" y2="89"  stroke="black" stroke-width="3"/><line    x1="104" y1="89" x2="0" y2="17"  stroke="black" stroke-width="3"/><line    x1="104" y1="89" x2="136" y2="0"  stroke="black" stroke-width="3"/><line    x1="104" y1="89" x2="218" y2="203"  stroke="black" stroke-width="3"/><line    x1="136" y1="0" x2="104" y2="89"  stroke="black" stroke-width="3"/><line    x1="136" y1="0" x2="240" y2="103"  stroke="black" stroke-width="3"/><line    x1="240" y1="103" x2="136" y2="0"  stroke="black" stroke-width="3"/><line    x1="240" y1="103" x2="366" y2="212"  stroke="black" stroke-width="3"/><line    x1="240" y1="103" x2="218" y2="203"  stroke="black" stroke-width="3"/><line    x1="366" y1="212" x2="240" y2="103"  stroke="black" stroke-width="3"/><line    x1="366" y1="212" x2="470" y2="328"  stroke="black" stroke-width="3"/><line    x1="470" y1="328" x2="366" y2="212"  stroke="black" stroke-width="3"/><line    x1="470" y1="328" x2="512" y2="432"  stroke="black" stroke-width="3"/><line    x1="512" y1="432" x2="470" y2="328"  stroke="black" stroke-width="3"/><line    x1="512" y1="432" x2="487" y2="512"  stroke="black" stroke-width="3"/><line    x1="512" y1="432" x2="386" y2="375"  stroke="black" stroke-width="3"/></svg>